<?xml version="1.0" encoding="UTF-8"?>
<svg id="Layer_1" xmlns="http://www.w3.org/2000/svg" version="1.1" viewBox="386 348 247 302">
  <!-- Generator: Adobe Illustrator 30.3.0, SVG Export Plug-In . SVG Version: 2.1.3 Build 182)  -->
  <defs>
    <style>
      .st0 {
        fill: #F4EFEA;
      }
    </style>
  </defs>
  <g>
    <g>
      <g>
        <path class="st0" d="M414.66,581.53c-.36,1.71-3.54,15.95-4.85,21.05-1.82,7-3.76,13.94-6.21,20.8.24-3.62,2.02-18.48,2.5-21.54,1.04-6.82,2.26-13.61,3.63-20.36.28-.06.57-.14.85-.22,1.56-.41,3.05-.93,4.44-1.52-.13.6-.24,1.18-.36,1.79Z"/>
        <path class="st0" d="M468.64,580.02c-1.77,10.94-8.1,21.62-17.13,28.13-.25.17-.54.41-.82.55-10.09,7.19-22.63,10.06-34.84,7.96-1.83-.32-3.58-.85-5.26-1.63,3.62.57,7.03,1.04,10.69.85,1.44-.06,2.83-.3,4.23-.39.25-.19,2.29-.47,2.81-.6,1.17-.27,2.31-.58,3.44-.95,7.41-2.31,13.63-7.06,18.27-13.23.9-1.18,1.55-2.53,2.43-3.71l.09-.14c1.15-2.48,2.46-4.82,3.41-7.41,3.49-9.54,4.15-21.11,1.48-30.92-.88-3.95-2.76-7.58-4.8-11.04-.54-.43-1.86-2.62-2.54-3.4-3.55-4-7-6.65-11.75-9.11-.82-.36-1.63-.77-2.45-1.12-8.64-3.66-19.74-4.34-28.84-2.18-2.26.54-4.37,1.34-6.52,2.21-4.75,2.31-9.89,5.42-11.73,10.72-.93,2.72-.88,5.46.39,8.05.87,1.75,1.97,3,3.74,3.84,5.83,2.57,18.05-2,23.74-4.15.9-3.24,1.85-6.44,2.91-9.63.19-.62,1.11-.41,1.04.21-.24,2.72-.54,5.43-.88,8.12,1.67-.52,4.26-1.45,4.88-1.63,3.28-.93,6.85-1.83,10.25-1.85-1.99,1.14-4.52,1.45-6.73,1.97-1.33.3-2.65.68-3.96,1.03-1.22.47-3.11,1.01-4.6,1.67-.35,2.67-.73,5.34-1.11,7.99-.84,5.42-1.78,10.82-2.83,16.2-1.67.76-3.44,1.3-5.26,1.78,1.31-6.27,2.76-12.52,4.36-18.74.55-2.12,1.12-4.23,1.71-6.35-5.78,2.19-16.6,7.91-24.48,4.39l-.13-.06c-.85-.46-1.67-1.01-2.39-1.69-1.97-1.88-2.79-4.5-2.81-7.17-.05-4.26,1.97-7.97,4.91-10.93,3.16-3.63,9.07-6.27,13.77-7.23,3.79-.9,8.31-1.63,12.21-1.47,3.44-.19,7.14-.03,10.56.39,3.9.39,10.79,1.74,14.32,3.27,6.25,2.27,13.11,6.25,17.34,11.46,3.76,4.09,7.52,11.24,8.42,16.74.39,1.11.54,2.38.69,3.57.7,5.15.74,10.5-.27,15.62Z"/>
      </g>
      <g>
        <path class="st0" d="M407.98,633.02v.52h-2.03v-.63c0-1.73-.66-2.74-2.19-2.74s-2.19,1.01-2.19,2.71c0,4.3,6.44,4.72,6.44,10.11,0,2.91-1.4,4.8-4.33,4.8s-4.3-1.89-4.3-4.8v-1.1h2v1.21c0,1.73.71,2.74,2.25,2.74s2.25-1.01,2.25-2.74c0-4.28-6.41-4.69-6.41-10.09,0-2.96,1.37-4.8,4.25-4.8s4.28,1.89,4.28,4.8Z"/>
        <path class="st0" d="M414.31,647.61v-17.24h-3.54v-1.95h9.21v1.95h-3.54v17.24h-2.14Z"/>
        <path class="st0" d="M426.5,640.73l-4.06-12.31h2.22l2.99,9.43,3.02-9.43h2.03l-4.08,12.31v6.88h-2.11v-6.88Z"/>
        <path class="st0" d="M435.88,647.61v-19.19h2.14v17.24h5.48v1.95h-7.62Z"/>
        <path class="st0" d="M453.58,636.91v1.92h-4.69v6.83h5.76v1.95h-7.89v-19.19h7.89v1.95h-5.76v6.55h4.69Z"/>
        <path class="st0" d="M466.3,628.42v19.19h-2.14v-19.19h2.14Z"/>
        <path class="st0" d="M472.93,647.61v-17.24h-3.54v-1.95h9.21v1.95h-3.54v17.24h-2.14Z"/>
        <path class="st0" d="M481.02,647.61h-.79v-2.66h2.06v2.47l-1.07,2.6h-.88l.69-2.41Z"/>
        <path class="st0" d="M491.85,633.05c0-2.93,1.45-4.82,4.39-4.82s4.41,1.89,4.41,4.82v9.92c0,2.91-1.45,4.82-4.41,4.82s-4.39-1.92-4.39-4.82v-9.92ZM493.96,643.08c0,1.75.74,2.77,2.27,2.77s2.28-1.01,2.28-2.77v-10.14c0-1.73-.71-2.77-2.28-2.77s-2.27,1.04-2.27,2.77v10.14Z"/>
        <path class="st0" d="M509.42,647.61h-2.93l-2.63-19.19h2.08l2.25,16.34,2.14-16.31h2.11l2.11,16.34,2.17-16.37h1.86l-2.6,19.19h-2.82l-1.84-13.02-1.89,13.02Z"/>
        <path class="st0" d="M523.83,647.61h-1.92v-19.19h2.71l4.44,13.87v-13.87h1.89v19.19h-2.22l-4.91-15.52v15.52Z"/>
        <path class="st0" d="M542.83,628.42v19.19h-2.14v-19.19h2.14Z"/>
        <path class="st0" d="M549.46,647.61v-17.24h-3.54v-1.95h9.21v1.95h-3.54v17.24h-2.14Z"/>
        <path class="st0" d="M557.55,647.61h-.79v-2.66h2.06v2.47l-1.07,2.6h-.88l.69-2.41Z"/>
        <path class="st0" d="M573.03,628.42c2.99,0,4.36,1.81,4.36,4.77v9.68c0,2.93-1.37,4.74-4.36,4.74h-4.5v-19.19h4.5ZM573.01,645.66c1.54,0,2.27-.96,2.27-2.71v-9.87c0-1.75-.74-2.71-2.3-2.71h-2.3v15.3h2.33Z"/>
        <path class="st0" d="M580.87,633.05c0-2.93,1.45-4.82,4.39-4.82s4.41,1.89,4.41,4.82v9.92c0,2.91-1.45,4.82-4.41,4.82s-4.39-1.92-4.39-4.82v-9.92ZM582.98,643.08c0,1.75.74,2.77,2.27,2.77s2.28-1.01,2.28-2.77v-10.14c0-1.73-.71-2.77-2.28-2.77s-2.27,1.04-2.27,2.77v10.14Z"/>
        <path class="st0" d="M597.62,628.42c3.02,0,4.28,1.54,4.28,4.39v1.56c0,2.11-.74,3.43-2.38,3.95,1.75.52,2.41,1.95,2.41,4v2.99c0,.85.03,1.64.38,2.3h-2.17c-.25-.55-.36-1.04-.36-2.33v-3.02c0-2.17-1.01-2.85-2.8-2.85h-1.51v8.2h-2.14v-19.19h4.28ZM597.07,637.46c1.7,0,2.71-.55,2.71-2.63v-1.84c0-1.73-.63-2.63-2.22-2.63h-2.08v7.1h1.59Z"/>
        <path class="st0" d="M607.93,628.42v19.19h-2.14v-19.19h2.14Z"/>
        <path class="st0" d="M619.79,628.42v19.19h-2.14v-19.19h2.14Z"/>
        <path class="st0" d="M626.43,647.61v-17.24h-3.54v-1.95h9.21v1.95h-3.54v17.24h-2.14Z"/>
      </g>
      <g>
        <path class="st0" d="M581.34,560.28c-3.13,0-6.17.51-9.13,1.54-6.04,2.1-10.02,4.1-11.94,6.02v-5.08h-12.84v49.5l12.84,6.69v-28.36c0-8.12,3.99-15.52,11.97-22.21,3.92-3.3,7.6-4.95,11.04-4.95,1.65,0,3.32.49,5.02,1.47,1.96,1.07,2.94,2.36,2.94,3.88,0,2.85-1.56,5.4-4.68,7.63-2.72,1.96-5.6,3.08-8.63,3.34l10.03,11.37c2.94-1.38,5.75-3.48,8.43-6.29,3.17-3.3,4.75-6.26,4.75-8.9,0-3.08-1.1-5.82-3.29-8.23-4.52-4.95-10.02-7.42-16.51-7.42Z"/>
        <path class="st0" d="M613.14,522.25c3.05,1,5.47,2.91,7.26,5.72l4.35,8.9c.54.18,1.16.27,1.87.27.85,0,1.36-.09,1.54-.27,0-1.11-.04-2.07-.13-2.88-.89-1.69-1.98-4.7-3.28-9.03-1.38-4.59-2.41-7.45-3.08-8.56-1.2-2.05-3.57-3.86-7.09-5.42-2.14-.94-4.93-1.94-8.36-3.01h-2.61v1.54c1.92,4.24,3.21,7.38,3.88,9.43.71,1.2,2.6,2.31,5.65,3.31Z"/>
        <path class="st0" d="M606.68,543.82h-67.62s-73.82,0-73.82,0c1.76,2.41,3.36,5.2,4.62,8.02h44.38v10.63c0,.36-.13.54-.41.54-6.11-1.65-10.72-2.48-13.84-2.48-5.67,0-10.51,1.38-14.52,4.14-3.35,2.33-6.2,5.25-8.56,8.77-2.63,3.92-3.94,7.71-3.94,11.37,0,7.93,4.06,15.29,12.17,22.07,7.77,6.46,15.3,9.7,22.61,9.7,5.03,0,9.7-1.16,13.98-3.49,9.05-4.91,13.58-12.48,13.58-22.69,0-6.16-1.37-10.89-4.08-14.2-3.57-3.57-5.35-5.56-5.35-5.96v-18.42h13.18s65.82,0,65.82,0h27.22v-8.03h-25.42ZM514.91,601.33c-6.6,5.36-12.67,8.04-18.19,8.04-2.23,0-4.44-.6-6.62-1.81-4.81-2.68-7.22-6.12-7.22-10.32,0-8.97,3.73-16.37,11.17-22.17,6.37-4.96,12.33-7.44,17.86-7.44,1.47,0,3.23.4,5.28,1.21,5.53,2.14,8.3,6.36,8.3,12.66,0,7.51-3.52,14.12-10.57,19.84Z"/>
        <polygon class="st0" points="613.24 611.78 624.48 618 624.48 560.14 613.24 560.14 613.24 611.78"/>
      </g>
    </g>
    <path class="st0" d="M391.14,601.16c-.14-.29-.26-.59-.42-.87-.05-.16-.1-.32-.15-.48-.83-3.02-.13-6.3,1.41-8.98,4.25-7.41,10.96-8.34,18.41-10.33,6.47-1.73,12.21-5.2,15.6-11.14,2.51-4.39,3.42-9.83,2.07-14.74.06,5.98-.49,10.69-3.97,15.79-7.59,11.14-20,7.19-28.92,14.55-.93.77-2.05,1.75-2.72,2.76-1.94,1.95-3.32,6.14-3.31,8.86,0,.47-.04,1.1.16,1.53.08,2.07,1.45,4.24,2.93,5.61,1.14,1.06,4.09,2.56,5.67,2.6.16,0,.18,0,.32-.04h0c-.68-.24-1.37-.39-2.04-.64-2.14-.83-4.01-2.42-5.05-4.49Z"/>
  </g>
  <g>
    <path class="st0" d="M471.92,382.96c-.12-.24-.42-.45-.4-.75,1.53-1.01,2.95-2.5,3.23-4.38-1.59-.29-3.39.01-4.78-1.04-2.17-1.54-5.05-2.06-7.61-1.23,1.06-1.27,2.32-2.5,2.74-4.16.38-1.64.87-3.31.63-5.01-.05-.67-.25-1.31-.38-1.96-.26-1.25-.98-2.38-2.08-3.04-.05-.03-.1-.06-.12-.07-.35-.2-.67-.51-1.02-.68.21-1.32.62-2.62.49-3.97-.3-3.17-2.04-5.99-4.05-8.38-1.09.81-1.85,1.96-2.71,2.99-.97,1.41-2.03,2.8-2.52,4.46-.54,1.37-.71,2.84-.96,4.28-.98-.34-1.67-1.45-2.79-1.35-1.22,1.18-2.4,2.52-2.96,4.14-.21.4.18.68.35.98.37-1.45,1.2-2.74,2.16-3.88.29-.27.61-.79,1.08-.57.87.52,1.75,1.09,2.37,1.89.08.41-.29.65-.52.92-1.6,1.56-3.14,3.2-4.37,5.07-.18.29-.34.59-.47.91.21-.79.03-1.65.34-2.44.15-.84,1.03-1.69.36-2.49-.68,1.58-1.75,3.48-.8,5.17-.15.39-.24.81-.23,1.23-.12-.2-.24-.41-.36-.61-.33-.28-.64-.46-.64-.46-1.99-1.58-4.53-2.49-7.08-2.41-1.56.05-3.13.19-4.68-.1-.68,2.12-.67,4.42-.44,6.62.27,2.72,1.75,5.16,3.63,7.07.62.67,1.46,1.07,2.18,1.62-1.67.16-3.4.62-4.65,1.81-2.27,2.13-3.53,5.14-4.06,8.16,2.74,1.5,5.52,3.45,8.81,3.19-.31,1.67-.87,3.38-.47,5.07.11.53.75.56,1.16.53,1.41-.14,2.77-.61,4.02-1.24.32.65,1.47,2.02,1.77,2.32,1.58,1.41,3.51,2.32,5.17,3.6.4.38.88,0,1.3-.14,1.58-.71,3.35-.53,5.03-.6.07-.21.08-.23.15-.44-1.08-1.09-1.76-2.67-1.45-4.22.64.59,1.47,1,2.36.93,1.03-.66,1.46-1.9,1.8-3.02.47-2.38-.61-4.66-1.75-6.69,2.49,1.82,5.83,2.3,8.78,1.5.91-.23,1.77-.61,2.67-.86,1.22-.33,2.52-.26,3.76-.08.3-1.66-.08-3.34-.46-4.96-.26-1.17-.78-2.26-1.5-3.21ZM462.84,376.11c2.12-.54,4.45-.35,6.31.89,1.43,1.02,3.2,1.49,4.95,1.3-.68,1.35-1.55,2.74-2.95,3.44-.45.06-.75-.4-1.11-.6-2.39-1.81-5.56-2.26-8.46-1.75-1.35.17-2.54.91-3.89,1.07-1.3.18-2.58.45-3.88.63,1.55-.68,3.05-1.47,4.51-2.32,1.48-.91,2.68-2.47,4.51-2.66ZM435.63,376.48c-1.53-2.61-1.56-5.75-1.33-8.67.79.78,1.01,2.08,2.1,2.59-.37-1.14-1.24-2.07-1.74-3.17.97.9,1.97,1.76,2.91,2.68,1.31,1.27,3.09,1.82,4.73,2.52-.19-.73-1.17-.8-1.76-1.16-2.35-.82-3.76-2.98-5.6-4.52,2.16.18,4.38-.28,6.5.36,1.76.34,3.25,1.4,4.57,2.57,1.13,1.28,1.78,2.89,2.65,4.35.48.86.89,1.79,1.17,2.74.41,1.41.53,2.9.16,4.36-.31-1.02-.65-2.03-1.12-2.99-.28-.58-.62-1.14-1.02-1.66-.89-1.12-1.75-2.36-3.02-3.08.03.3.16.55.38.74,1.32,1.31,2.51,2.82,3.31,4.51.29.61.54,1.26.72,1.91.06.38.02.76,0,1.14-.42-.73-.84-1.47-1.3-2.18-.52-.79-1.09-1.53-1.81-2.16-1.54-1.37-3.15-2.69-4.92-3.74.06.48.52.71.84.99,2.05,1.56,4.13,3.23,5.58,5.37.28.41.54.84.76,1.28-.38-.24-.77-.46-1.17-.66-.62-.31-1.26-.57-1.92-.8-1.24-.42-2.34-1.22-3.64-1.49.04.09.13.26.18.34,1.56,1.05,3.34,1.68,5.06,2.44.65.29,1.29.6,1.9.96-.11.36-.53.22-.81.25-.62.03-1.24.05-1.87.03-2.01-.06-4.02-.44-5.82-1.36-2.01-.92-3.55-2.63-4.69-4.48ZM431.92,391.13c1.26.11,2.51-.14,3.72-.41.75-.23,1.58-.37,2.16-.95-1.98.41-3.96,1.14-6.01.85.99-.46,2.02-.89,3.11-1.01.49-.08,1.02-.03,1.45-.32-1.56-.38-3.25.09-4.66.78.67-1.97,1.34-4.04,2.79-5.6,1.64-1.98,4.46-2.92,6.94-2.23,1.43.35,2.89.64,4.36.68.68.02,1.37-.01,2.05-.12-.16.15-.47.44-.62.58.21,0,.64,0,.86-.01-.98.92-2.13,1.64-3.26,2.34-.32.2-.65.38-.99.54-1.11.55-2.28.98-3.34,1.61.62.17,1.19-.21,1.75-.39.39-.15.78-.31,1.17-.49,2.05-.92,3.93-2.19,5.66-3.64-1.5,2.67-3.33,5.36-6.14,6.79-.32.22-.85.24-.96.67.42-.01.82-.13,1.2-.33,2.83-1.29,4.68-3.96,6.24-6.53-.58,2.03-1.04,4.18-2.4,5.87-1.64,2.28-4.37,3.51-7.08,3.95-.08.01-.17.03-.25.04-2.84.33-5.41-1.25-7.74-2.67ZM439.51,399.38c.02-1.19.08-2.39.4-3.55.16-.49.16-1.26.8-1.38.81-.21,1.61-.48,2.4-.75-.02,1.61.6,3.18.84,4.71-1.43.45-2.92,1.35-4.45.97ZM459.69,397.1c-.24.93-.48,2.14-1.42,2.62-1.01-.04-1.66-.91-2.56-1.25-.36,1.77-.05,3.69,1.2,5.05-1.74-.23-3.58.07-5.17.81-.89-.58-1.66-1.33-2.62-1.78-1.74-1.03-3.46-2.35-4.27-4.27-.59-1.22-.81-2.56-.98-3.89,0-.34-.14-.73.08-1.03.38-.3.81-.52,1.2-.8,2.36-1.64,3.83-4.33,4.41-7.1.12-.6.49-1.22.19-1.84.14-.06.36-.11.31.11-.23.87.23,1.74.1,2.62.04,1.29-.43,2.49-.71,3.72.46.06.58-.46.75-.77.58-1.48.51-3.07.48-4.62.92,2.11,1.7,4.48,1.07,6.79-.27.93-1.03,1.55-1.5,2.34.83-.09,1.3-.87,1.65-1.53.93-2.17.74-4.75-.34-6.83,1.83,2.39,3.61,5.31,2.95,8.46.49.07.35-.66.5-.96.35-1.91-.46-3.8-1.35-5.45-.61-1.34-1.7-2.36-2.58-3.53,2.16,1.68,4.21,3.52,5.98,5.6,1.6,2.14,3.19,4.72,2.62,7.51ZM473.31,389.43c-.82-1.57-2.09-2.87-3.62-3.75-1.63-.93-3.33-1.88-5.23-2.02l.11.26c2.52.74,4.94,1.94,6.9,3.72.5.47.87,1.06,1.17,1.66-.46-.13-.93-.26-1.4-.39.21.75,1.28.92,1.86,1.42-.67,0-1.34-.05-2.01.01-1.91.24-3.62,1.35-5.57,1.35-2.64.23-5.25-.72-7.45-2.12-2.1-2.11-4.17-4.31-6.66-5.98,1.22.39,2.44.76,3.68,1.08,2.04.79,4.03,1.72,6.18,2.22.06-.65-.79-.54-1.2-.77-2.79-.97-5.39-2.55-8.39-2.84-.02.2-.94-.2-.49-.3,1.04.32,2.14.19,3.21.25,3.11.22,5.89,1.92,9.01,2.05l.16-.23c-1.53-.39-3.11-.58-4.59-1.18-1.24-.38-2.41-1.04-3.73-1.1-1.52-.08-3.04-.29-4.56-.42.27-.23.33-.56.41-.89l.32.31c1.95-2,4.04-3.87,5.84-6.01,1.56-2.04,2.71-4.56,2.51-7.18l-.25.08c-.45,1.7-.56,3.53-1.5,5.06-1.02,1.73-2.39,3.28-3.9,4.58,1.19-1.76,2.19-3.67,2.77-5.72.1-.4.05-.83-.27-1.11-.6,2.92-2.04,5.66-4.02,7.89.18-1.04.71-1.99.83-3.05.06-1.13.36-2.29,0-3.41-.07-.2-.13-.4-.2-.61-.2-.56-.48-1.12-1.08-1.33.08.65.61,1.09.78,1.71,0,.02.02.04.02.06.51,1.73.01,3.55-.46,5.23-.48,1.25-.95,2.61-2.02,3.49.15-1.09.44-2.2.26-3.3-.09-.67-.26-1.3-.47-1.93-.61-1.76-1.62-3.4-2.46-5.05-.41-.74.04-1.57.2-2.32.87-2.86,3.3-4.76,5.29-6.83,1.05-.9,1.9-2.25,3.39-2.39.59-.18,1.01.47,1.58.45.1-.76-.92-.86-1.45-.96-1.51-.05-2.49,1.23-3.71,1.85-.22-.75,0-1.55.08-2.31.55-3.72,2.83-6.89,5.34-9.57,1.53,2.25,3.12,4.62,3.4,7.4.21,1.29-.15,2.56-.42,3.81-.93-.29-1.6.42-2.35.79-.86.19-1.53-.41-1.79-1.19-.3.06-.85.43-.39.7.47.45,1.01.82,1.58,1.12-.15,1.07.01,2.2-.45,3.2-.25.43-.56.84-.75,1.3,1.64-.57,1.39-2.67,1.74-4.05.54,1.19.3,2.39-.21,3.51-.35.76-.83,1.48-1.27,2.14.63.05.84-.64,1.17-1.04.42-.58.7-1.23.86-1.91.25-1.09.19-2.27-.08-3.37.5-.18,1-.55,1.55-.35.59.06,1.12.28,1.59.61.82.58,1.42,1.48,1.74,2.42.99,2.51.72,5.39-.34,7.83-.89,2.08-2.67,3.54-4.44,4.86-1.91,1.29-3.85,2.58-5.94,3.58-.77.63-1.81.95-2.47,1.67.14.06.42.17.56.23,2.26-.77,4.62-1.53,7.03-1.35.19-.16.39-.3.6-.44,2.64-1.11,5.72-1.14,8.36-.03,2.66,1.13,4.74,3.62,5.16,6.52.15.8.44,1.59.34,2.41Z"/>
    <g>
      <path class="st0" d="M499.21,442.97c-.66.24-1.32.49-1.98.76-1.21.39-2.41.75-3.65,1.05-.61,3.75-1.26,7.49-1.94,11.23-.19,1.08-.8,3.41-.71,4.43-.53,2.65-.88,5.34-1.32,8.01-.55,3.2-1.13,6.39-1.72,9.58-1.46,7.81-3.2,15.54-4.38,23.4,4.06-10.48,6.92-21.34,9.56-32.25,1.23-4.78,2.52-9.64,3.48-14.49.4-1.15.63-2.43.9-3.61.62-2.7,1.2-5.4,1.76-8.11Z"/>
      <g>
        <g>
          <path class="st0" d="M565.22,424.35c-.19-1.36-.36-2.86-.8-4.17-1.06-6.41-5.44-14.75-9.82-19.51-4.96-6.09-12.95-10.74-20.24-13.39-4.14-1.79-12.16-3.36-16.72-3.81-4-.51-8.31-.69-12.33-.47-4.56-.19-9.81.67-14.25,1.71-5.48,1.13-12.37,4.21-16.07,8.44-3.42,3.46-5.79,7.78-5.75,12.74.03,3.13,1,6.18,3.3,8.39.82.79,1.78,1.43,2.78,1.98l.13.06c6.98,3.17,14.53.89,21.27-1.67l.11-1.61c-6.56,2.49-13.39,5.12-20.26,2.11-2.05-.99-3.35-2.45-4.35-4.48-1.49-3.03-1.55-6.24-.45-9.42,2.13-6.18,8.13-9.8,13.67-12.52,2.51-1.01,4.98-1.94,7.62-2.57,10.62-2.53,23.57-1.74,33.65,2.54.97.41,1.91.88,2.87,1.31,5.54,2.87,9.57,5.96,13.71,10.65.78.89,2.33,3.45,2.96,3.94,2.38,4.04,4.56,8.28,5.6,12.89,3.11,11.46,2.33,24.97-1.74,36.09-1.11,3.03-2.64,5.74-3.97,8.64l-.12.16c-1.02,1.38-1.78,2.95-2.82,4.34-5.42,7.2-12.69,12.75-21.34,15.45-1.32.43-2.66.8-4.01,1.1-.62.14-2.98.47-3.29.68-1.65.13-3.27.39-4.93.47-4.29.21-8.27-.33-12.49-1.01,1.97.92,4,1.54,6.14,1.91,14.25,2.45,28.88-.89,40.65-9.29.34-.16.67-.43.98-.65,10.54-7.58,17.93-20.05,19.99-32.81,1.18-5.97,1.13-12.23.31-18.24Z"/>
          <path class="st0" d="M506.34,404.41s0,0,0,0c0,0,0,0,0,0,.28-1.2.45-3.01.38-4.53-.02-.56-.08-1.07-.17-1.51-.03-.36-.16-.68-.28-1.02-.02-.15-.02-.17-.08-.35-.35-1.03-1.14-1.91-2.16-2.31-.79-.3-1.68-.36-2.45,0-1.11.52-1.6,1.56-2.01,2.64-1.63,4.23-1.48,9.48-1.76,13.97-.18,3.19-.47,6.39-.85,9.56-.54,4.32-1.13,8.63-1.76,12.93-.36,2.4-.85,4.86-1.03,7.27,1.96-.45,3.82-1.03,5.71-1.7.53-3.52,1.34-7,1.89-10.51l1.4-9.21c.23-1.46.37-3.07.88-4.47.4-.71.64-1.46.84-2.22.19-.7.36-1.41.59-2.11,1.6-1.28,5.15-2.19,7.17-2.98,1.56-.42,3.1-.86,4.68-1.22,2.62-.61,5.62-.98,7.97-2.32-4.03.01-8.25,1.08-12.12,2.18-1.09.31-7.1,2.49-7.5,2.36h0c.49-1.37.59-3.03.66-4.48ZM502.2,410.75c-.22.02-.19.07-.33-.08-1.08-1.09-.59-4-.56-5.44.28-2.04.49-4.14,1.37-6.02.35-.18.56-.3.97-.24.37.24.52.43.6.87.35,1.92-.42,5.82-.95,7.67-.24.83-.71,1.8-.82,2.64-.07.23-.12.41-.27.61Z"/>
        </g>
        <path class="st0" d="M471.78,467.7c-.17-.34-.3-.69-.49-1.02-.06-.19-.12-.37-.17-.56-.97-3.52-.15-7.35,1.64-10.48,4.96-8.64,12.79-9.73,21.48-12.06,7.55-2.02,14.25-6.07,18.21-13,2.93-5.12,4-11.48,2.42-17.21.07,6.97-.57,12.48-4.63,18.44-8.86,13-23.35,8.39-33.75,16.99-1.08.9-2.39,2.04-3.17,3.22-2.26,2.28-3.87,7.17-3.86,10.35,0,.54-.05,1.28.19,1.78.09,2.42,1.69,4.95,3.42,6.55,1.33,1.24,4.77,2.99,6.62,3.04.19,0,.21,0,.37-.05h0c-.79-.27-1.6-.45-2.38-.75-2.5-.97-4.69-2.82-5.89-5.25Z"/>
      </g>
    </g>
    <g>
      <path class="st0" d="M460.42,495.53c1.26.99,2.58,1.96,3.9,2.87l1.26-1.82c-1.29-.89-2.56-1.83-3.79-2.79l-1.37,1.74Z"/>
      <path class="st0" d="M446.76,481.88c.99,1.26,2.04,2.51,3.1,3.71l1.66-1.47c-1.04-1.17-2.05-2.38-3.02-3.61l-1.74,1.37Z"/>
      <path class="st0" d="M435.43,455.69l-2.11.66c.48,1.53,1.01,3.07,1.58,4.57l2.07-.79c-.56-1.46-1.07-2.96-1.54-4.45Z"/>
      <path class="st0" d="M441.25,473.93c.83,1.37,1.72,2.74,2.63,4.06l1.82-1.26c-.89-1.28-1.75-2.61-2.56-3.94l-1.89,1.15Z"/>
      <path class="st0" d="M436.75,465.38c.66,1.46,1.37,2.92,2.12,4.34l1.96-1.03c-.73-1.38-1.42-2.8-2.06-4.22l-2.02.91Z"/>
      <path class="st0" d="M495.42,511.27c1.58.29,3.19.53,4.78.72l.26-2.2c-1.55-.19-3.12-.42-4.65-.7l-.4,2.18Z"/>
      <path class="st0" d="M500.03,352.89l.27,2.2c1.54-.19,3.12-.33,4.69-.43l-.14-2.21c-1.61.1-3.23.25-4.82.44Z"/>
      <path class="st0" d="M486.02,508.97c1.53.48,3.1.91,4.66,1.29l.53-2.15c-1.52-.37-3.04-.8-4.53-1.26l-.66,2.12Z"/>
      <path class="st0" d="M468.39,501.03c1.38.83,2.8,1.63,4.22,2.38l1.03-1.96c-1.38-.73-2.76-1.51-4.1-2.32l-1.15,1.9Z"/>
      <path class="st0" d="M476.96,505.54c1.47.66,2.97,1.28,4.48,1.85l.78-2.07c-1.46-.55-2.93-1.16-4.35-1.8l-.91,2.02Z"/>
      <path class="st0" d="M431.9,432.43c0-1.54.05-3.09.13-4.62l-2.21-.13c-.09,1.57-.14,3.17-.14,4.74v.09s2.21,0,2.21,0v-.08Z"/>
      <path class="st0" d="M495.65,355.79l-.4-2.18c-1.58.29-3.17.63-4.73,1.02l.53,2.15c1.52-.38,3.06-.71,4.6-.99Z"/>
      <path class="st0" d="M584.18,409.09l2.11-.66c-.48-1.53-1.02-3.07-1.59-4.57l-2.07.79c.56,1.46,1.08,2.95,1.54,4.44Z"/>
      <path class="st0" d="M587.59,427.56l2.21-.14c-.1-1.6-.25-3.22-.44-4.82l-2.2.27c.19,1.55.33,3.13.43,4.69Z"/>
      <path class="st0" d="M486.52,358.05l-.66-2.11c-1.53.48-3.07,1.01-4.57,1.59l.79,2.07c1.46-.56,2.96-1.08,4.44-1.54Z"/>
      <path class="st0" d="M586.45,418.22l2.18-.4c-.29-1.58-.63-3.17-1.02-4.73l-2.15.53c.38,1.51.71,3.06.99,4.6Z"/>
      <path class="st0" d="M432.04,437.22l-2.21.13c.1,1.61.24,3.23.44,4.82l2.2-.27c-.19-1.55-.33-3.12-.43-4.69Z"/>
      <path class="st0" d="M437.76,402.65c-.16-.05-.27-.15-.37-.28h0c-.32-.42-.69-.8-1.05-1.18-.05-.05-.08-.11-.11-.17-.56,1.15-1.11,2.31-1.39,3.07l2.07.78c.27-.71.57-1.47.88-2.22-.01,0-.03,0-.04,0Z"/>
      <path class="st0" d="M433.17,446.55l-2.18.4c.29,1.58.63,3.17,1.02,4.73l2.15-.53c-.37-1.52-.71-3.06-.99-4.6Z"/>
      <path class="st0" d="M505.15,510.21l-.13,2.21c1.59.09,3.2.14,4.79.14h.04v-2.22h-.04c-1.55,0-3.12-.05-4.66-.14Z"/>
      <path class="st0" d="M435.38,409.33l-2.12-.66c-.48,1.54-.91,3.1-1.29,4.66l2.15.53c.37-1.52.79-3.04,1.26-4.53Z"/>
      <path class="st0" d="M433.14,418.47l-2.18-.39c-.29,1.58-.53,3.19-.72,4.79l2.2.26c.19-1.55.42-3.12.7-4.65Z"/>
      <path class="st0" d="M453.18,489.12c1.14,1.14,2.32,2.25,3.52,3.32l1.47-1.66c-1.17-1.03-2.32-2.12-3.43-3.22l-1.57,1.57Z"/>
      <path class="st0" d="M571.15,480.49l1.74,1.37c.99-1.26,1.96-2.57,2.87-3.9l-1.82-1.26c-.89,1.29-1.83,2.56-2.79,3.79Z"/>
      <path class="st0" d="M575.7,386.8l-1.82,1.26c.89,1.29,1.75,2.61,2.56,3.94l1.89-1.15c-.83-1.37-1.72-2.73-2.64-4.05Z"/>
      <path class="st0" d="M562.87,372.37l-1.47,1.66c1.17,1.04,2.33,2.12,3.43,3.22l1.56-1.57c-1.14-1.13-2.32-2.25-3.53-3.31Z"/>
      <path class="st0" d="M509.69,352.29v2.22h.13c1.53,0,3.07.04,4.58.13l.13-2.21c-1.55-.09-3.14-.14-4.71-.14h-.13Z"/>
      <path class="st0" d="M569.72,379.2l-1.66,1.47c1.04,1.17,2.05,2.38,3.02,3.61l1.74-1.37c-.99-1.26-2.04-2.51-3.1-3.71Z"/>
      <path class="st0" d="M576.51,472.75l1.89,1.15c.83-1.38,1.64-2.8,2.38-4.22l-1.96-1.03c-.73,1.38-1.51,2.76-2.32,4.1Z"/>
      <path class="st0" d="M589.95,432.26h-2.21v.17c0,1.56-.05,3.15-.14,4.7l2.21.13c.09-1.6.14-3.23.14-4.84v-.16Z"/>
      <path class="st0" d="M586.48,446.47l2.18.4c.29-1.58.53-3.19.72-4.78l-2.2-.26c-.19,1.55-.42,3.12-.7,4.65Z"/>
      <path class="st0" d="M584.23,455.61l2.11.66c.48-1.53.91-3.1,1.3-4.66l-2.15-.53c-.37,1.52-.8,3.04-1.26,4.53Z"/>
      <path class="st0" d="M580.72,395.06l-1.96,1.03c.73,1.38,1.42,2.8,2.07,4.22l2.02-.91c-.66-1.46-1.38-2.92-2.13-4.34Z"/>
      <path class="st0" d="M580.89,464.42l2.02.91c.66-1.47,1.29-2.97,1.86-4.48l-2.07-.79c-.56,1.46-1.16,2.93-1.81,4.35Z"/>
      <path class="st0" d="M564.91,487.53l1.57,1.57c1.13-1.13,2.25-2.32,3.32-3.52l-1.66-1.47c-1.04,1.17-2.12,2.32-3.23,3.43Z"/>
      <path class="st0" d="M533.03,506.83l.66,2.11c1.53-.48,3.07-1.01,4.57-1.58l-.79-2.07c-1.46.55-2.96,1.07-4.45,1.54Z"/>
      <path class="st0" d="M528.87,354.57l-.52,2.15c1.52.37,3.04.79,4.54,1.25l.65-2.12c-1.53-.47-3.1-.91-4.67-1.29Z"/>
      <path class="st0" d="M523.9,509.08l.4,2.18c1.58-.29,3.17-.63,4.73-1.01l-.53-2.15c-1.51.37-3.06.7-4.6.98Z"/>
      <path class="st0" d="M519.35,352.86l-.26,2.2c1.55.18,3.12.42,4.65.69l.39-2.18c-1.58-.29-3.19-.53-4.79-.71Z"/>
      <path class="st0" d="M514.56,510.21l.13,2.21c1.6-.1,3.23-.24,4.82-.43l-.27-2.2c-1.55.19-3.13.33-4.69.42Z"/>
      <path class="st0" d="M538.12,357.44l-.78,2.07c1.46.55,2.93,1.16,4.36,1.8l.91-2.02c-1.47-.66-2.98-1.28-4.48-1.85Z"/>
      <path class="st0" d="M550.14,499.12l1.15,1.89c1.37-.83,2.74-1.72,4.06-2.63l-1.26-1.82c-1.28.89-2.61,1.75-3.95,2.56Z"/>
      <path class="st0" d="M555.25,366.41l-1.26,1.82c1.28.88,2.56,1.82,3.79,2.79l1.36-1.75c-1.27-.99-2.58-1.96-3.9-2.87Z"/>
      <path class="st0" d="M546.96,361.4l-1.03,1.96c1.38.72,2.76,1.5,4.1,2.31l1.14-1.9c-1.38-.83-2.8-1.63-4.22-2.38Z"/>
      <path class="st0" d="M557.87,493.77l1.37,1.74c1.26-.99,2.51-2.03,3.71-3.1l-1.47-1.66c-1.17,1.04-2.38,2.05-3.61,3.01Z"/>
      <path class="st0" d="M541.82,503.49l.91,2.02c1.46-.66,2.93-1.37,4.34-2.12l-1.03-1.96c-1.38.73-2.8,1.42-4.22,2.06Z"/>
    </g>
  </g>
</svg>